<?xml version="1.0" encoding="UTF-8" standalone="no"?>
<!-- Created with Inkscape (http://www.inkscape.org/) -->

<svg
   width="587.76697"
   height="830.72083"
   viewBox="0 0 587.76697 830.72083"
   version="1.1"
   id="svg1"
   xml:space="preserve"
   xmlns="http://www.w3.org/2000/svg"
   xmlns:svg="http://www.w3.org/2000/svg"><defs
     id="defs1" /><g
     id="layer1"
     transform="translate(-71.468224,-115.29519)"><g
       id="g3"
       transform="translate(-0.99029711,-145.50143)"
       style="display:inline;fill:#aaccff;fill-opacity:1"><path
         style="font-weight:bold;font-size:477.156px;font-family:'Open Sans';-inkscape-font-specification:'Open Sans Bold';fill:#aaccff;fill-opacity:1;stroke-width:1.16056;paint-order:stroke fill markers"
         d="m 594.12018,1033.7071 -11.5331,-37.86331 h -57.9917 l -11.5331,37.86331 h -36.3401 l 56.1422,-159.72221 h 41.2362 l 56.3597,159.72221 z m -19.5845,-66.15199 q -15.9939,-51.46362 -18.0612,-58.20938 -1.9584,-6.74576 -2.8288,-10.66265 -3.5905,13.92673 -20.5637,68.87203 z"
         id="path2-6" /><path
         style="font-weight:bold;font-size:477.156px;font-family:'Open Sans';-inkscape-font-specification:'Open Sans Bold';fill:#aaccff;fill-opacity:1;stroke-width:1.16056"
         d="M 353.99294,1033.7071 315.69443,908.91052 h -0.97924 q 2.06723,38.0809 2.06723,50.81081 v 73.98577 H 286.64411 V 874.63771 h 45.91473 l 37.64566,121.64128 h 0.6528 l 39.93058,-121.64128 h 45.9147 v 159.06939 h -31.444 v -75.2914 q 0,-5.33133 0.1088,-12.2947 0.2177,-6.96336 1.5233,-36.99287 h -0.9793 l -41.01851,124.57897 z"
         id="path1-1" /><path
         style="font-weight:bold;font-size:477.156px;font-family:'Open Sans';-inkscape-font-specification:'Open Sans Bold';fill:#aaccff;fill-opacity:1;stroke-width:1.16056"
         d="m 253.67696,953.95479 q 0,28.07107 -10.00988,47.11151 -9.90103,18.9317 -29.15908,27.7447 l 38.29853,42.7594 h -43.19465 l -29.15909,-35.6873 h -2.50246 q -36.55767,0 -56.14214,-21.2165 -19.58446,-21.21647 -19.58446,-60.92941 0,-39.71295 19.58446,-60.60304 19.69327,-20.9989 56.35974,-20.9989 36.66648,0 56.03333,21.1077 19.4757,21.1077 19.4757,60.71184 z m -116.09239,0 q 0,26.65663 10.11864,40.14815 10.11864,13.49156 30.24712,13.49156 40.36576,0 40.36576,-53.63971 0,-53.74848 -40.14816,-53.74848 -20.12847,0 -30.35591,13.60033 -10.22745,13.49152 -10.22745,40.14815 z"
         id="text2-5" /></g><g
       id="g4"
       transform="translate(-22.77137)"><g
         id="g2"><circle
           style="fill:#aaccff;fill-opacity:1;stroke-width:3.38472;paint-order:stroke fill markers"
           id="path1-12"
           cx="388.12308"
           cy="424.35251"
           r="256.7746" /><circle
           style="fill:#ffffff;fill-opacity:1;stroke-width:3.17397;paint-order:stroke fill markers"
           id="path1-3"
           cx="372.85172"
           cy="409.08115"
           r="240.78632" /><circle
           style="fill:#aaccff;fill-opacity:1;stroke-width:2.82614;paint-order:stroke fill markers"
           id="path1"
           cx="372.85172"
           cy="409.08115"
           r="214.39874" /></g><g
         id="g1"
         transform="translate(6.7549286)"><circle
           style="fill:#ffffff;fill-opacity:1;paint-order:stroke fill markers"
           id="path2"
           cx="263.9617"
           cy="409.08115"
           r="41.437019" /><circle
           style="fill:#ffffff;fill-opacity:1;paint-order:stroke fill markers"
           id="path2-2"
           cx="468.23187"
           cy="409.08115"
           r="41.437019" /></g></g></g></svg>
