<!--Created with Inkscape (http://www.inkscape.org/)-->
<svg xmlns="http://www.w3.org/2000/svg" xml:space="preserve" viewBox="0 0 587.767 830.721">
  <g fill="#acf" font-family="Open Sans" font-size="477.156" font-weight="700">
    <path d="m594.12 1033.707-11.533-37.863h-57.992l-11.533 37.863h-36.34l56.142-159.722h41.237l56.36 159.722zm-19.584-66.152q-15.994-51.464-18.062-58.21-1.958-6.745-2.828-10.662-3.59 13.927-20.564 68.872z" paint-order="stroke fill markers" style="-inkscape-font-specification:'Open Sans Bold'" transform="translate(-72.459 -260.797)"/>
    <path d="m353.993 1033.707-38.299-124.796h-.979q2.067 38.08 2.067 50.81v73.986h-30.138v-159.07h45.915l37.646 121.642h.652l39.93-121.641h45.916v159.07h-31.444v-75.292q0-5.332.108-12.295.218-6.963 1.524-36.993h-.98l-41.018 124.58zm-100.316-79.752q0 28.07-10.01 47.111-9.901 18.932-29.159 27.745l38.299 42.76h-43.195l-29.16-35.688h-2.502q-36.557 0-56.142-21.216-19.584-21.217-19.584-60.93t19.584-60.603q19.693-20.999 56.36-20.999 36.666 0 56.033 21.108 19.476 21.108 19.476 60.712zm-116.092 0q0 26.656 10.118 40.148 10.119 13.492 30.247 13.492 40.366 0 40.366-53.64 0-53.749-40.148-53.749-20.129 0-30.356 13.6-10.227 13.492-10.227 40.149z" style="-inkscape-font-specification:'Open Sans Bold'" transform="translate(-72.459 -260.797)"/>
  </g>
  <g paint-order="stroke fill markers">
    <g transform="translate(-94.24 -115.295)">
      <circle cx="388.123" cy="424.353" r="256.775" fill="#acf"/>
      <circle cx="372.852" cy="409.081" r="240.786" fill="#fff"/>
      <circle cx="372.852" cy="409.081" r="214.399" fill="#acf"/>
    </g>
    <g fill="#fff" transform="translate(-87.485 -115.295)">
      <circle cx="263.962" cy="409.081" r="41.437"/>
      <circle cx="468.232" cy="409.081" r="41.437"/>
    </g>
  </g>
</svg>
