<!--Created with Inkscape (http://www.inkscape.org/)-->
<svg xmlns="http://www.w3.org/2000/svg" xml:space="preserve" viewBox="0 0 1771.336 587.767">
  <g fill="#acf" font-family="Open Sans" font-size="477.156" font-weight="700">
    <path d="m1764.986 672.453-24.696-81.08h-124.182l-24.696 81.08h-77.818l120.221-342.024h88.302l120.687 342.024zm-41.937-141.656q-34.25-110.202-38.676-124.648-4.194-14.445-6.058-22.832-7.688 29.822-44.034 147.48z" paint-order="stroke fill markers" style="-inkscape-font-specification:'Open Sans Bold'" transform="translate(-106.757 -238.656)"/>
    <path d="m1250.786 672.453-82.012-267.236h-2.096q4.426 81.546 4.426 108.805v158.43h-64.537V331.828h98.32l80.614 260.478h1.397l85.506-260.478h98.32v340.626h-67.332V511.226q0-11.416.233-26.327.466-14.911 3.261-79.216h-2.096l-87.836 266.77zm-214.814-170.779q0 60.11-21.435 100.883-21.201 40.54-62.44 59.411l82.011 91.564h-92.495l-62.44-76.42h-5.36q-78.283 0-120.22-45.432-41.938-45.432-41.938-130.472t41.938-129.774q42.17-44.966 120.687-44.966 78.516 0 119.988 45.2 41.704 45.199 41.704 130.006zm-248.596 0q0 57.081 21.667 85.972 21.668 28.89 64.77 28.89 86.439 0 86.439-114.862 0-115.095-85.972-115.095-43.103 0-65.004 29.123-21.9 28.89-21.9 85.972z" style="-inkscape-font-specification:'Open Sans Bold'" transform="translate(-106.757 -238.656)"/>
  </g>
  <g paint-order="stroke fill markers">
    <g transform="translate(-96.06 -130.469)">
      <circle cx="388.123" cy="424.353" r="256.775" fill="#acf"/>
      <circle cx="372.852" cy="409.081" r="240.786" fill="#fff"/>
      <circle cx="372.852" cy="409.081" r="214.399" fill="#acf"/>
    </g>
    <g fill="#fff" transform="translate(-89.305 -130.469)">
      <circle cx="263.962" cy="409.081" r="41.437"/>
      <circle cx="468.232" cy="409.081" r="41.437"/>
    </g>
  </g>
</svg>
